<?xml version="1.0" standalone="no"?>
<!DOCTYPE svg PUBLIC "-//W3C//DTD SVG 20010904//EN"
 "http://www.w3.org/TR/2001/REC-SVG-20010904/DTD/svg10.dtd">
<svg version="1.0" xmlns="http://www.w3.org/2000/svg"
 width="249.000000pt" height="300.000000pt" viewBox="0 0 249.000000 300.000000"
 preserveAspectRatio="xMidYMid meet">

<g transform="translate(0.000000,300.000000) scale(0.100000,-0.100000)"
fill="#000000" stroke="none">
<path d="M763 2969 c-88 -11 -226 -55 -304 -96 -193 -100 -340 -295 -407 -541
-25 -92 -27 -109 -26 -312 1 -156 6 -244 19 -320 29 -177 53 -274 70 -286 18
-13 109 -28 305 -50 169 -18 306 -38 485 -69 162 -29 185 -30 185 -11 0 18 24
14 -515 97 -253 39 -462 73 -465 76 -3 2 3 10 13 18 12 9 30 10 60 4 23 -4
116 -20 207 -34 91 -14 282 -46 424 -71 142 -24 261 -43 263 -41 2 3 -21 60
-52 128 -76 168 -129 337 -160 509 -23 122 -26 166 -23 276 3 128 4 133 41
206 51 104 127 175 230 212 156 57 338 69 606 41 100 -10 148 -12 168 -4 26
10 26 10 7 28 -37 35 -369 159 -551 206 -160 40 -417 56 -580 34z m-649 -1076
c3 -3 6 0 6 7 0 9 5 7 15 -6 10 -13 14 -14 15 -5 0 9 4 10 13 3 14 -11 45 -17
197 -37 159 -20 231 -43 249 -79 21 -45 17 -87 -16 -159 -28 -60 -30 -68 -17
-82 9 -8 28 -15 44 -15 48 0 142 -40 136 -57 -5 -11 0 -13 17 -8 21 6 21 6 3
-9 -11 -9 -18 -18 -15 -20 2 -2 42 -12 89 -21 92 -19 151 -38 90 -30 -142 20
-484 70 -624 93 l-170 27 -17 70 c-32 125 -55 315 -49 410 1 24 4 20 14 -23 8
-29 16 -55 20 -59z"/>
<path d="M718 1443 c7 -3 16 -2 19 1 4 3 -2 6 -13 5 -11 0 -14 -3 -6 -6z"/>
<path d="M1237 2430 c-87 -22 -162 -79 -203 -153 -26 -47 -29 -61 -28 -142 1
-122 32 -199 119 -293 80 -87 149 -134 245 -169 65 -23 91 -27 190 -28 103 0
121 3 170 26 117 55 171 133 178 259 4 64 0 86 -20 136 -63 155 -207 281 -392
344 -69 23 -204 34 -259 20z m-167 -338 c0 -15 -2 -15 -10 -2 -13 20 -13 33 0
25 6 -3 10 -14 10 -23z m40 -69 c34 -66 166 -194 238 -232 13 -7 21 -18 19
-25 -5 -11 55 -44 111 -61 12 -3 22 -11 22 -17 0 -5 -6 -8 -14 -5 -8 3 -32 9
-53 13 -21 3 -60 17 -87 31 -54 26 -146 99 -146 115 0 5 -19 31 -41 56 -44 50
-99 138 -99 160 0 28 27 9 50 -35z"/>
<path d="M2008 2343 c-4 -19 6 -59 27 -108 7 -16 25 -68 41 -115 23 -73 27
-102 28 -205 1 -88 -3 -131 -15 -163 -63 -164 -226 -323 -422 -411 -254 -114
-506 -152 -868 -132 -206 11 -263 20 -499 80 -128 33 -200 46 -200 37 0 -9
199 -501 466 -1155 33 -79 65 -146 72 -148 16 -7 223 39 357 77 317 92 611
219 801 346 343 230 556 499 641 809 24 87 27 119 28 245 0 144 -2 161 -46
307 -47 159 -152 316 -336 501 -56 56 -69 62 -75 35z m-1693 -1091 c50 -12
153 -31 230 -43 77 -12 146 -23 153 -25 9 -3 13 -22 12 -61 -1 -64 1 -81 14
-102 5 -8 3 -16 -5 -22 -10 -6 -10 -9 -2 -9 18 0 32 -31 54 -118 11 -42 22
-86 25 -97 4 -17 3 -18 -6 -5 -10 12 -10 11 -4 -5 4 -11 8 -35 8 -52 l1 -33
123 0 c72 0 121 -4 118 -9 -11 -17 14 -63 36 -69 33 -8 -66 -30 -179 -38 -66
-5 -90 -10 -85 -18 5 -6 26 -54 46 -106 20 -52 48 -118 62 -147 43 -91 45
-101 26 -108 -9 -3 -66 -17 -125 -30 -73 -16 -113 -29 -122 -41 -14 -20 -7
-32 -70 116 -15 36 -35 83 -45 105 -27 60 -123 288 -163 385 -19 47 -80 195
-136 329 -55 134 -101 246 -101 248 0 2 10 -3 23 -11 12 -8 63 -23 112 -34z
m752 -244 c-3 -10 -1 -16 4 -12 5 3 9 14 9 25 0 10 5 19 11 19 8 0 9 -11 5
-32 -6 -30 -5 -31 9 -13 10 13 13 15 10 4 -3 -9 1 -22 10 -29 20 -17 21 -118
1 -126 -8 -3 -12 -14 -9 -27 4 -20 3 -20 -10 3 -17 29 -52 154 -62 220 l-6 45
16 -30 c9 -16 14 -38 12 -47z m-302 -918 c3 -5 2 -10 -4 -10 -5 0 -13 5 -16
10 -3 6 -2 10 4 10 5 0 13 -4 16 -10z m-65 -9 c0 -5 -7 -12 -16 -15 -14 -5
-15 -4 -4 9 14 17 20 19 20 6z m25 -1 c3 -5 1 -10 -4 -10 -6 0 -11 5 -11 10 0
6 2 10 4 10 3 0 8 -4 11 -10z"/>
<path d="M771 804 c0 -11 3 -14 6 -6 3 7 2 16 -1 19 -3 4 -6 -2 -5 -13z"/>
<path d="M780 714 c0 -16 -2 -17 -10 -4 -5 8 -10 11 -10 5 0 -5 4 -16 9 -24 7
-11 10 -9 16 8 4 13 4 25 1 28 -3 4 -6 -2 -6 -13z"/>
</g>
</svg>
